# xmcd
#
# Track frame offsets:
#	151
#	8654
#	17898
#	27618
#	40651
#	49517
#	61624
#	71802
#	81097
#	93730
#	102820
#	114907
#	124672
#	132936
#	143343
#	152127
#	159821
#	170718
#	179524
#	191530
#	201989
#	210938
#	221826
#	234494
#	244595
#
# Disc length: 3394 seconds
#
# Revision: 1
# Processed by: cddbd v1.5.2PL0 Copyright (c) Steve Scherf et al.
# Submitted via: audiograbber 1.83.01
#
DISCID=4e0d4019
DTITLE=Various Artist - House Party Hop - Eight Beat Boogie
DYEAR=1997
DGENRE=County-Rock'n#Roll
TTITLE0=Sam and his Rockin' Five - Marie
TTITLE1=Mathews Tobin - Leatherjacket Cowboy
TTITLE2=Brent Frankie - No Rockin' Rollin' here
TTITLE3=Maddox Johnny - Johnny Maddox Boogie 
TTITLE4=Applewhite Charlie - Honey Love
TTITLE5=Little Jackie - Hands Up
TTITLE6=Crombie Tony Orchestra - The Gigglin' Gurgleburp
TTITLE7=Maddox Johnny - Boppin'
TTITLE8=Cornell Don - Strike while the Iron is Hot
TTITLE9=O'Neill Johnny - Pick another Baby
TTITLE10=Dee Lenny - Big Organ Boogie
TTITLE11=Pedrick Bobby Jr. - White Bucks and Saddle Shoes
TTITLE12=Carroll David - Jukebox Jingle
TTITLE13=Field Andy - Come on Guitar
TTITLE14=Byrnes Edd - Saturday Night at Sunset Strip
TTITLE15=Page Patti - Missisippi Mud
TTITLE16=James Sonny - That's how much i Love you
TTITLE17=Coleman Richard - Stockin' Rockin'
TTITLE18=Maddox Johnny - Eight Beat Boogie
TTITLE19=Grant Gerry - Someday Maybe Tonight
TTITLE20=Amato Larry - He made a Miracle
TTITLE21=O'Neill Johnny - Beach Doll
TTITLE22=NEE Bernie - Country Music Holiday
TTITLE23=Castle Nann - A Steady Baby
TTITLE24=Paul Ray De - Ready to Rip
EXTD=
EXTT0=
EXTT1=
EXTT2=
EXTT3=
EXTT4=
EXTT5=
EXTT6=
EXTT7=
EXTT8=
EXTT9=
EXTT10=
EXTT11=
EXTT12=
EXTT13=
EXTT14=
EXTT15=
EXTT16=
EXTT17=
EXTT18=
EXTT19=
EXTT20=
EXTT21=
EXTT22=
EXTT23=
EXTT24=
PLAYORDER=
